<?xml version="1.0" encoding="UTF-8"?>
<svg version="1.1" xmlns="http://www.w3.org/2000/svg" width="547" height="350">
<path d="M0 0 C180.51 0 361.02 0 547 0 C547 115.5 547 231 547 350 C366.49 350 185.98 350 0 350 C0 234.5 0 119 0 0 Z " fill="#F3F3F3" transform="translate(0,0)"/>
<path d="M0 0 C23.43 0 46.86 0 71 0 C68.7100792 3.81653467 67.18802318 6.04424222 64.125 9 C63.4134375 9.69222656 62.701875 10.38445313 61.96875 11.09765625 C61.3190625 11.72542969 60.669375 12.35320313 60 13 C59.21625 13.804375 58.4325 14.60875 57.625 15.4375 C55.29020712 17.71670258 52.89085194 19.85087931 50.4375 22 C45.15070168 26.71610945 40.41030149 31.83530308 35.6640625 37.08203125 C31.05386971 42.13161192 31.05386971 42.13161192 29 44 C28.34 44 27.68 44 27 44 C26.773125 44.556875 26.54625 45.11375 26.3125 45.6875 C23.39609993 50.82591917 18.47531575 54.27057021 14 58 C11.4590396 60.41996229 9.15908881 62.79616746 7 65.5625 C5 68 5 68 0 72 C0 48.24 0 24.48 0 0 Z " fill="#FBFBFB" transform="translate(0,0)"/>
<path d="M0 0 C0.33 0.66 0.66 1.32 1 2 C0.34 1.67 -0.32 1.34 -1 1 C-0.67 0.67 -0.34 0.34 0 0 Z M-3 2 C-2.34 2 -1.68 2 -1 2 C-1.9977758 4.99332739 -2.7522025 5.94766315 -5 8 C-5.66 7.67 -6.32 7.34 -7 7 C-5.71937515 5.2925002 -4.38232443 3.62626404 -3 2 Z M-7 8 C-7 8.66 -7 9.32 -7 10 C-7.70125 10.556875 -8.4025 11.11375 -9.125 11.6875 C-12.07650499 14.06153662 -14.23094454 16.55905702 -16.5703125 19.51171875 C-18 21 -18 21 -21 22 C-19.41438362 18.14406926 -16.93490046 15.66783709 -14 12.75 C-13.113125 11.85796875 -12.22625 10.9659375 -11.3125 10.046875 C-9 8 -9 8 -7 8 Z " fill="#DFDFDF" transform="translate(61,11)"/>
<path d="M0 0 C0.99 0 1.98 0 3 0 C3.6875 1.8125 3.6875 1.8125 4 4 C2.5625 5.75 2.5625 5.75 1 7 C-1.475 6.01 -1.475 6.01 -4 5 C-2.1875 2.5 -2.1875 2.5 0 0 Z " fill="#DDDFDE" transform="translate(124,265)"/>
<path d="M0 0 C0.66 0.33 1.32 0.66 2 1 C1.67 2.65 1.34 4.3 1 6 C-3 6 -3 6 -5 5 C-3.35 3.35 -1.7 1.7 0 0 Z M-7 6 C-6.34 6.33 -5.68 6.66 -5 7 C-5.99 8.485 -5.99 8.485 -7 10 C-7.66 10 -8.32 10 -9 10 C-8.34 8.68 -7.68 7.36 -7 6 Z M-11 10 C-10.01 10.495 -10.01 10.495 -9 11 C-9.99 11.495 -9.99 11.495 -11 12 C-11 11.34 -11 10.68 -11 10 Z " fill="#DFE0E0" transform="translate(38,34)"/>
<path d="M0 0 C0.66 0.66 1.32 1.32 2 2 C0.02 3.98 -1.96 5.96 -4 8 C-4.99 7.67 -5.98 7.34 -7 7 C-6.67 5.68 -6.34 4.36 -6 3 C-5.38125 2.87625 -4.7625 2.7525 -4.125 2.625 C-1.80879168 2.12802644 -1.80879168 2.12802644 0 0 Z " fill="#CBCDCC" transform="translate(111,278)"/>
<path d="M0 0 C0.33 0.66 0.66 1.32 1 2 C0.34 1.67 -0.32 1.34 -1 1 C-0.67 0.67 -0.34 0.34 0 0 Z M-3 2 C-2.34 2 -1.68 2 -1 2 C-1.9977758 4.99332739 -2.7522025 5.94766315 -5 8 C-5.66 7.67 -6.32 7.34 -7 7 C-5.71937515 5.2925002 -4.38232443 3.62626404 -3 2 Z " fill="#D9D9D9" transform="translate(61,11)"/>
<path d="M0 0 C0.66 0.33 1.32 0.66 2 1 C-0.31 3.31 -2.62 5.62 -5 8 C-5 4.86248779 -4.64820195 3.60242414 -3 1 C-2.01 0.67 -1.02 0.34 0 0 Z " fill="#E6E8E7" transform="translate(196,272)"/>
</svg>
