<svg xmlns="http://www.w3.org/2000/svg" fill="#1a53a0" class="bi bi-git" viewBox="0 0 1020 1020" id="Git--Streamline-Bootstrap" height="1020" width="1020">
  <desc>
    Git Streamline Icon: https://streamlinehq.com
  </desc>
  <path d="M1000.7475000000001 464.54625 555.39 19.252499999999998a65.66250000000001 65.66250000000001 0 0 0 -92.88375 0l-92.4375 92.4375 117.30000000000001 117.30000000000001a77.96625 77.96625 0 0 1 98.8125 99.45l113.02874999999999 113.0925a78.03 78.03 0 0 1 80.77125 129.09375 78.1575 78.1575 0 0 1 -127.62749999999998 -85.0425L546.975 380.14125v277.50374999999997a78.1575 78.1575 0 1 1 -64.26 -2.295V375.29625a78.1575 78.1575 0 0 1 -42.4575 -102.51L324.67875 157.14374999999998l-305.3625 305.3625a65.66250000000001 65.66250000000001 0 0 0 0 92.88375l445.35749999999996 445.35749999999996a65.66250000000001 65.66250000000001 0 0 0 92.88375 0l443.25375 -443.25375a65.66250000000001 65.66250000000001 0 0 0 0 -92.88375" stroke-width="63.75"></path>
</svg>