<svg xmlns="http://www.w3.org/2000/svg" fill="none" viewBox="0 0 1020 1020" id="Playwright--Streamline-Svg-Logos" height="1020" width="1020">
  <desc>
    Playwright Streamline Icon: https://streamlinehq.com
  </desc>
  <path fill="#2d4552" d="M339.823625 558.5233125c-37.283125 10.5814375 -61.7429375 29.1326875 -77.85575 47.670125 15.432812499999999 -13.5054375 36.1048125 -25.9005625 63.9911875 -33.8055625 28.52175 -8.0835 52.8540625 -8.025062499999999 72.95975 -4.145875v-15.7218125c-17.150875 -1.5682500000000001 -36.8145625 -0.31875 -59.095187499999994 6.003125Zm-79.56 -132.1654375 -138.462875 36.478812500000004s2.5234375 3.5646875000000002 7.195250000000001 8.3204375l117.39987500000001 -30.934687500000003s-1.663875 21.436999999999998 -16.1106875 40.613c27.3275 -20.6751875 29.9784375 -54.4775625 29.9784375 -54.4775625Zm115.9028125 325.411875C181.311375 804.2519374999999 78.22050625 578.4356250000001 47.00871874999999 461.2280625c-14.42025 -54.1025 -20.7151375 -95.07674999999999 -22.39293125 -121.51918749999999 -0.18030625 -2.7455000000000003 -0.09700624999999999 -5.0596250000000005 0.0971125 -7.180375 -10.1079875 0.609875 -14.94731375 5.8639375 -13.962737500000001 21.048125000000002 1.67779375 26.427562499999997 7.972787500000001 67.3996875 22.3930375 121.51918749999999C64.34106875 592.2853125 167.44575 818.101625 362.30187499999994 765.6205000000001c42.412875 -11.426124999999999 74.2761875 -32.2373125 98.19518749999999 -58.80406250000001 -22.046875000000004 19.912312500000002 -49.63999999999999 35.59375 -84.330625 44.9533125Zm36.6169375 -463.613375v13.86775h76.429875c-1.5682500000000001 -4.9098125 -3.1481875 -9.3340625 -4.7164375000000005 -13.86775h-71.7134375Z" stroke-width="10.625"></path>
  <path fill="#2d4552" d="M506.29825 402.362375c34.371874999999996 9.7611875 52.551249999999996 33.85975 62.159437499999996 55.18625l38.324375 10.88425s-5.2275 -74.6374375 -72.7398125 -93.8145c-63.158187500000004 -17.9445625 -102.02443749999999 35.09225 -106.75150000000001 41.955999999999996 18.37275 -13.09 45.2019375 -23.806375000000003 79.0075 -14.212Zm305.07243750000004 55.530499999999996c-63.2155625 -18.0253125 -102.0669375 35.122 -106.72493750000001 41.8890625 18.3865625 -13.074062499999998 45.2019375 -23.794687500000002 78.99262499999999 -14.15675 34.316625 9.777125 52.481125 33.845937500000005 62.1190625 55.1873125l38.379625000000004 10.924625s-5.3125 -74.6523125 -72.766375 -93.84425Zm-38.07575 196.79625 -318.8126875 -89.1278125s3.4509999999999996 17.4983125 16.694 40.156124999999996l268.42575 75.0411875c22.098937499999998 -12.786125 33.6929375 -26.069499999999998 33.6929375 -26.069499999999998ZM552.2609375 846.5351875C299.8236875 778.855 330.341875 457.2160625 371.1896875 304.8025625c16.8183125 -62.81075 34.1094375 -109.4959375 48.447875 -140.7908125 -8.555250000000001 -1.7605624999999998 -15.6410625 2.7455000000000003 -22.6429375 16.985125 -15.224562500000001 30.879437499999998 -34.692750000000004 81.15587500000001 -53.5340625 151.53799999999998 -40.836125 152.4103125 -71.355375 474.038625 181.07125000000002 541.7188125 118.980875 31.875 211.6701875 -16.57075 280.765625 -92.652125 -65.5849375 59.402249999999995 -149.3205625 92.70631250000001 -253.03650000000002 64.93362499999999Z" stroke-width="10.625"></path>
  <path fill="#e2574c" d="M412.7855 676.3949375V611.49l-180.3349375 51.136s13.3248125 -77.424375 107.3751875 -104.10375c28.52175 -8.0835 52.85725 -8.02825 72.95975 -4.145875V288.1553125h90.2944375c-9.8313125 -30.3800625 -19.34175 -53.768875 -27.329625 -70.020875 -13.2143125 -26.899312499999997 -26.760125000000002 -9.067375 -57.513125 16.653624999999998 -21.660125 18.0954375 -76.40118749999999 56.697125 -158.77575 78.894875 -82.3766875 22.2115625 -148.973125 16.3210625 -176.76005 11.508999999999999 -39.392506250000004 -6.795749999999999 -59.99693125 -15.446625 -58.06934375 14.515875000000001 1.6774749999999998 26.427562499999997 7.972787500000001 67.402875 22.39293125 121.51918749999999C78.22263124999999 578.4196875 181.32731249999998 804.2360000000001 376.182375 751.754875c50.8990625 -13.714749999999999 86.825375 -40.822312499999995 111.72824999999999 -75.37375h-75.125125v0.0138125ZM121.7890625 462.835625l138.4766875 -36.478812500000004s-4.0364375 53.271625 -55.949124999999995 66.956625c-51.9265 13.6711875 -82.5275625 -30.4778125 -82.5275625 -30.4778125Z" stroke-width="10.625"></path>
  <path fill="#2ead33" d="M933.9406875 291.23125c-35.995374999999996 6.3101875 -122.3521875 14.171625 -229.0739375 -14.4340625 -106.75150000000001 -28.588687500000002 -177.579875 -78.5899375 -205.64156250000002 -102.0924375 -39.78 -33.3189375 -57.278312500000006 -56.4750625 -74.4993125 -21.44975 -15.224562500000001 30.892187500000002 -34.6938125 81.1696875 -53.538312499999996 151.5518125 -40.8329375 152.4103125 -71.351125 474.038625 181.0723125 541.71775 252.3703125 67.6228125 386.72662499999996 -226.19243749999998 427.56275 -378.61656250000004 18.8445 -70.3683125 27.1075625 -123.65375 29.3813125 -158.01181250000002 2.5925 -38.9204375 -24.1410625 -27.622875 -75.26325 -18.6649375ZM426.7765 417.326625s39.78 -61.869375000000005 107.24981249999999 -42.693375c67.5123125 19.177062499999998 72.7398125 93.81556250000001 72.7398125 93.81556250000001l-179.98962500000002 -51.122187499999995ZM591.4725 694.96c-118.674875 -34.7639375 -136.9775 -129.397625 -136.9775 -129.397625l318.7978125 89.131c0 -0.014875 -64.34925 74.5949375 -181.8203125 40.266625Zm112.71424999999999 -194.48212500000002s39.72475 -61.826875 107.18181249999999 -42.595625000000005c67.4549375 19.205750000000002 72.766375 93.84425 72.766375 93.84425l-179.9481875 -51.248625000000004Z" stroke-width="10.625"></path>
  <path fill="#d65348" d="M349.77075 629.3623125 232.45375 662.6121875s12.743625 -72.5995625 99.16737499999999 -101.36993749999999l-66.4306875 -249.3039375 -5.7406875 1.744625c-82.375625 22.214750000000002 -148.9720625 16.3210625 -176.75877499999999 11.508999999999999 -39.39229375 -6.7925625 -59.996612500000005 -15.446625 -58.06934375 14.5190625 1.67779375 26.427562499999997 7.972787500000001 67.3996875 22.39293125 121.518125 31.197868749999998 117.1905625 134.3031875 343.00687500000004 329.1571875 290.52574999999996l5.7406875 -1.8030624999999998 -32.1416875 -120.5895ZM121.79225 462.83774999999997l138.4766875 -36.4809375s-4.0364375 53.271625 -55.9480625 66.956625c-51.9275625 13.6711875 -82.528625 -30.4756875 -82.528625 -30.4756875Z" stroke-width="10.625"></path>
  <path fill="#1d8d22" d="m596.825375 696.2615625000001 -5.36775 -1.30475c-118.6738125 -34.76075 -136.9775 -129.3944375 -136.9775 -129.3944375l164.39212500000002 45.951 87.0325625 -334.438875 -1.0529374999999999 -0.2773125c-106.75150000000001 -28.588687500000002 -177.575625 -78.5899375 -205.64156250000002 -102.0924375 -39.78 -33.3189375 -57.278312500000006 -56.4750625 -74.4993125 -21.44975 -15.2096875 30.892187500000002 -34.6789375 81.1696875 -53.52343749999999 151.5518125 -40.8329375 152.4103125 -71.351125 474.038625 181.0723125 541.715625l5.1733125 1.1655625 39.3921875 -151.4264375ZM426.7765 417.3276875s39.78 -61.8704375 107.24981249999999 -42.6944375c67.5123125 19.177062499999998 72.7398125 93.81556250000001 72.7398125 93.81556250000001l-179.98962500000002 -51.121125Z" stroke-width="10.625"></path>
  <path fill="#c04b41" d="m355.748375 627.65275 -31.4616875 8.92925c7.4321875 41.90075 20.532812500000002 82.112125 41.0964375 117.63575 3.5785 -0.7905 7.128312500000001 -1.4694375000000002 10.77375 -2.4681875 9.554 -2.5776250000000003 18.413125 -5.769375 26.942875 -9.250125 -22.9755 -34.094562499999995 -38.1745625 -73.3624375 -47.351375 -114.8466875Zm-12.285687500000002 -295.11575c-16.167 60.34256249999999 -30.630812499999998 147.19662499999998 -26.649625 234.313125 7.1261874999999995 -3.0929375 14.654 -5.9744375000000005 23.015874999999998 -8.347l5.824625 -1.3015625c-7.1006875 -93.05481250000001 8.2481875 -187.87975 25.5393125 -252.396875 4.3828125 -16.3210625 8.777312499999999 -31.5020625 13.158 -45.659875 -7.0560625 4.4911875000000006 -14.654 9.0939375 -23.308062500000002 13.835875 -5.8363125 18.013625 -11.73 37.7028125 -17.580125000000002 59.5563125Z" stroke-width="10.625"></path>
</svg>