<svg role="img" viewBox="0 0 1020 1020" xmlns="http://www.w3.org/2000/svg" id="Postman--Streamline-Simple-Icons" height="1020" width="1020">
  <desc>
    Postman Streamline Icon: https://streamlinehq.com
  </desc>
  <title>Postman</title>
  <path d="M574.8974999999999 4.2075000000000005C295.5875 -31.62 40.035 165.75 4.2075000000000005 445.1025c-35.8275 279.31 161.5 534.8199999999999 440.85249999999996 570.69 279.3525 35.8275 534.9475 -161.54250000000002 570.69 -440.89500000000004C1051.62 295.5875 854.2925 40.0775 574.8974999999999 4.2075000000000005zm105.0175 318.1125a36.3375 36.3375 0 0 0 -25.2025 10.625l-189.25250000000003 189.25250000000003 -13.0475 -13.0475 -27.3275 -27.3275c186.5325 -185.98000000000002 220.14999999999998 -187.76500000000001 254.83 -159.5025zm-206.6775 206.5925 188.70000000000002 -188.70000000000002a26.35 26.35 0 1 1 35.9975 38.3775l-199.70749999999998 175.3125 -24.99 -24.99zm14.025 29.494999999999997 -46.75000000000001 10.115a2.55 2.55 0 0 1 -2.8475 -1.36 2.55 2.55 0 0 1 0.425 -3.1024999999999996l27.4125 -27.4125 21.76 21.76zm-119.1275 -19.5075 49.809999999999995 -49.809999999999995 37.3575 37.315 -84.1075 18.105a3.145 3.145 0 0 1 -3.6125000000000003 -1.6575 3.0599999999999996 3.0599999999999996 0 0 1 0.5525 -3.9525zm-154.95499999999998 257.465a3.23 3.23 0 0 1 -2.9325 -3.5275000000000003 3.2725 3.2725 0 0 1 0.9349999999999999 -1.955h0.085l40.205 -40.205 51.935 51.935 -90.2275 -6.2475zm103.06249999999999 -53.38a9.69 9.69 0 0 0 -4.9725 10.88l8.627500000000001 36.7625a5.3125 5.3125 0 0 1 -8.9675 4.9725h-0.1275l-39.695 -39.695 -12.495 -12.5375 159.885 -159.715 77.35000000000001 -16.7025 37.145 37.145c-53.3375 46.835 -126.2675 93.5425 -216.74999999999997 138.89zm224.3575 -145.69h-0.085l-35.6575 -35.6575 199.70749999999998 -175.3125a40.46 40.46 0 0 0 5.0575 -5.3975c-6.29 57.1625 -86.2325 137.9125 -169.0225 216.3675zm155.4225 -274.55 -0.1275 -0.085a77.435 77.435 0 0 1 104.50750000000001 -114.07000000000001l-68.425 68.5525a5.0575 5.0575 0 0 0 0 7.1825l52.9975 52.9975a77.2225 77.2225 0 0 1 -88.9525 -14.5775zm109.565 0a72.845 72.845 0 0 1 -11.5175 9.265h-0.0425l-51.29750000000001 -51.29750000000001 65.1525 -65.1525c28.0925 30.599999999999998 27.0725 77.86 -2.295 107.18499999999999zm-4.25 -65.62a6.0775 6.0775 0 0 0 -2.2525 6.6725 17.68 17.68 0 0 1 -2.2525 19.125 5.95 5.95 0 0 0 0.9775 8.3725 5.9925 5.9925 0 0 0 3.5700000000000003 1.275 5.95 5.95 0 0 0 4.505 -2.125 29.367499999999996 29.367499999999996 0 0 0 3.6975 -31.9175 5.865 5.865 0 0 0 -8.245000000000001 -1.4025z" fill="#1a53a0" stroke-width="42.5"></path>
</svg>