<svg role="img" viewBox="0 0 1020 1020" xmlns="http://www.w3.org/2000/svg" id="Trello--Streamline-Simple-Icons" height="1020" width="1020">
  <desc>
    Trello Streamline Icon: https://streamlinehq.com
  </desc>
  <title>Trello</title>
  <path d="M898.7475 0H121.25250000000001A121.55 121.55 0 0 0 0 121.25250000000001v777.495A121.55 121.55 0 0 0 121.25250000000001 1020h777.495A121.55 121.55 0 0 0 1020 898.7475V121.25250000000001A121.55 121.55 0 0 0 898.7475 0zM439.45 734.6975a40.5025 40.5025 0 0 1 -40.5025 40.5025h-170a40.545 40.545 0 0 1 -40.545 -40.5025V228.65a40.5025 40.5025 0 0 1 40.545 -40.5025h170a40.545 40.545 0 0 1 40.5025 40.5025zm392.40250000000003 -232.3475a40.12 40.12 0 0 1 -40.5025 40.247499999999995h-170a40.247499999999995 40.247499999999995 0 0 1 -40.5025 -40.247499999999995V228.65a40.5025 40.5025 0 0 1 40.5025 -40.5025h170a40.545 40.545 0 0 1 40.5025 40.5025z" fill="#1a53a0" stroke-width="42.5"></path>
</svg>